# xmcd
#
# Track frame offsets:
#	150
#	13854
#	26491
#
# Disc length: 607 seconds
#
# Revision: 4
# Processed by: cddbd v1.5.2PL0 Copyright (c) Steve Scherf et al.
# Submitted via: EasyCDDAExtractor 12.0.0.1
#
DISCID=1a025d03
DTITLE=Kasia Bochenek and Black Horse - Polną drogą do marzen
DYEAR=2005
DGENRE=Country
TTITLE0=Pastoralka ding-dong
TTITLE1=Biala pastoralka
TTITLE2=Kolysanka dla dzieciatka
EXTD=YEAR: 2005
EXTT0=Written by M. Tillis
EXTT1=Written by Bert Kaempfert, Charles Singleton, Eddie Snyder
EXTT2=Written by John McCrea
PLAYORDER=
